<?xml version="1.0" encoding="UTF-8" standalone="no"?>
<!-- Created with Inkscape (http://www.inkscape.org/) -->

<svg
   xmlns:dc="http://purl.org/dc/elements/1.1/"
   xmlns:cc="http://creativecommons.org/ns#"
   xmlns:rdf="http://www.w3.org/1999/02/22-rdf-syntax-ns#"
   xmlns:svg="http://www.w3.org/2000/svg"
   xmlns="http://www.w3.org/2000/svg"
   xmlns:sodipodi="http://sodipodi.sourceforge.net/DTD/sodipodi-0.dtd"
   xmlns:inkscape="http://www.inkscape.org/namespaces/inkscape"
   width="744.09448"
   height="1165"
   id="svg2"
   version="1.1"
   inkscape:version="0.48.2 r9819"
   sodipodi:docname="New document 1">
  <defs
     id="defs4" />
  <sodipodi:namedview
     id="base"
     pagecolor="#ffffff"
     bordercolor="#666666"
     borderopacity="1.0"
     inkscape:pageopacity="0.0"
     inkscape:pageshadow="2"
     inkscape:zoom="0.23"
     inkscape:cx="202.88108"
     inkscape:cy="758.07552"
     inkscape:document-units="px"
     inkscape:current-layer="layer1"
     showgrid="false"
     inkscape:window-width="698"
     inkscape:window-height="696"
     inkscape:window-x="39"
     inkscape:window-y="14"
     inkscape:window-maximized="0" />
  <metadata
     id="metadata7">
    <rdf:RDF>
      <cc:Work
         rdf:about="">
        <dc:format>image/svg+xml</dc:format>
        <dc:type
           rdf:resource="http://purl.org/dc/dcmitype/StillImage" />
        <dc:title></dc:title>
      </cc:Work>
    </rdf:RDF>
  </metadata>
  <g
     inkscape:label="Layer 1"
     inkscape:groupmode="layer"
     id="layer1"
     transform="translate(0,112.63782)">
    <g
       id="g4087"
       transform="translate(26.086957,343.47826)">
      <g
         transform="matrix(0.68610882,0,0,0.63419302,6.946021,-488.90744)"
         id="g3850">
        <path
           style="fill:#fff522;fill-opacity:0.45882353;stroke:#000000;stroke-width:1px;stroke-linecap:butt;stroke-linejoin:miter;stroke-opacity:1"
           d="m -2.857142,663.79075 57.142856,-2.85714 c 0,0 27.52158,-50.15992 42.85714,-74.28572 26.787026,-42.14118 85.714276,-122.85714 85.714276,-122.85714 l -37.14284,-20 c 0,0 -52.570806,82.41153 -80.000006,122.85714 -22.2465,32.80348 -68.571426,97.14286 -68.571426,97.14286 z"
           id="path3757"
           inkscape:connector-curvature="0"
           sodipodi:nodetypes="ccaccac" />
        <path
           style="fill:#ff4e22;fill-opacity:0.45882353;stroke:#000000;stroke-width:1px;stroke-linecap:butt;stroke-linejoin:miter;stroke-opacity:1"
           d="m 57.142864,660.93361 54.285706,0 c 0,0 14.86737,-48.56578 25.71429,-71.42857 7.14109,-15.05177 12.87509,-32.24082 25.71428,-42.85714 23.45253,-19.39216 75.10445,-2.90651 85.71429,-31.42858 3.4186,-9.19011 32.07033,-31.50355 -14.28572,-25.71428 C 214.5527,491.96943 220,463.79075 220,463.79075 c 0,0 61.64951,-8.38662 77.14286,-31.42857 0.53142,-0.79033 0.81408,-2.36289 -10e-6,-2.85714 -45.87897,-27.85401 -103.20328,38.11532 -142.85714,74.28571 -23.42152,21.36401 -34.77362,53.02591 -51.42857,80 -15.703316,25.43285 -45.714276,77.14286 -45.714276,77.14286 z"
           id="path3763"
           inkscape:connector-curvature="0"
           sodipodi:nodetypes="ccaaascaaaac" />
        <path
           style="fill:#00ffff;fill-opacity:0.45812809;stroke:#000000;stroke-width:0.90099859px;stroke-linecap:butt;stroke-linejoin:miter;stroke-opacity:1"
           d="m 148.57143,443.99138 35.29586,20.4629 c 0,0 15.56381,-52.06872 33.27557,-71.49024 22.28316,-24.43421 53.78934,-41.32818 85.71428,-49.95188 56.08508,-15.14995 118.7976,-17.20831 174.28572,-10e-6 30.17742,9.3588 56.32721,32.11219 78.153,53.63286 l 32.92893,-23.13373 c -23.3616,-25.62231 -52.3282,-51.96058 -85.36765,-66.36593 -36.79589,-16.04318 -78.71731,-18.99414 -118.85688,-19.3632 -39.83418,-0.36626 -81.66075,1.37571 -118.28598,17.04378 -33.39134,14.28463 -63.48259,38.54425 -85.71428,67.2633 -16.0115,20.68376 -31.42857,71.90215 -31.42857,71.90215 z"
           id="path3775"
           inkscape:connector-curvature="0"
           sodipodi:nodetypes="ccaaaccaaaac" />
        <path
           style="fill:#00ffff;fill-opacity:0.45882353;stroke:#000000;stroke-width:1px;stroke-linecap:butt;stroke-linejoin:miter;stroke-opacity:1"
           d="m 560,409.50504 44.04061,59.16317 31.91878,-19.50981 -41.67368,-62.5105 z"
           id="path3777"
           inkscape:connector-curvature="0"
           sodipodi:nodetypes="ccccc" />
        <path
           sodipodi:type="arc"
           style="opacity:0.775;fill:#00e1fc;fill-opacity:0.78431373;stroke:#000000;stroke-width:3;stroke-miterlimit:10;stroke-opacity:1;stroke-dasharray:none;stroke-dashoffset:0"
           id="path3797"
           sodipodi:cx="390"
           sodipodi:cy="508.07648"
           sodipodi:rx="92.857147"
           sodipodi:ry="35.714287"
           d="m 482.85715,508.07648 c 0,19.72445 -41.57356,35.71428 -92.85715,35.71428 -51.28359,0 -92.85715,-15.98983 -92.85715,-35.71428 0,-19.72446 41.57356,-35.71429 92.85715,-35.71429 51.28359,0 92.85715,15.98983 92.85715,35.71429 z"
           transform="translate(-2.8571429,17.142857)" />
        <path
           sodipodi:type="arc"
           style="opacity:0.775;fill:#0000fc;fill-opacity:1;stroke:#0000fb;stroke-width:6.4000001;stroke-miterlimit:10;stroke-opacity:1;stroke-dasharray:none;stroke-dashoffset:0"
           id="path3802"
           sodipodi:cx="382.85715"
           sodipodi:cy="692.36218"
           sodipodi:rx="54.285713"
           sodipodi:ry="17.142857"
           d="m 437.14286,692.36218 c 0,9.46774 -24.30454,17.14286 -54.28571,17.14286 -29.98117,0 -54.28572,-7.67512 -54.28572,-17.14286 0,-9.46774 24.30455,-17.14285 54.28572,-17.14285 29.98117,0 54.28571,7.67511 54.28571,17.14285 z"
           transform="matrix(0.82501095,0,0,0.86253468,74.138666,-70.538496)" />
        <path
           sodipodi:nodetypes="ccaccac"
           inkscape:connector-curvature="0"
           id="path3816"
           d="m 786.2243,669.50504 -57.14285,-2.85714 c 0,0 -27.52158,-50.15992 -42.85714,-74.28572 C 659.43728,550.221 600.51003,469.50504 600.51003,469.50504 l 37.14284,-20 c 0,0 52.57081,82.41153 80.00001,122.85714 22.2465,32.80348 68.57142,97.14286 68.57142,97.14286 z"
           style="fill:#fff522;fill-opacity:0.45882353;stroke:#000000;stroke-width:1px;stroke-linecap:butt;stroke-linejoin:miter;stroke-opacity:1" />
        <path
           sodipodi:nodetypes="ccaaascaaaac"
           inkscape:connector-curvature="0"
           id="path3818"
           d="m 726.2243,666.6479 -54.28571,0 c 0,0 -14.86737,-48.56578 -25.71429,-71.42857 -7.14109,-15.05177 -12.87509,-32.24082 -25.71428,-42.85714 -23.45253,-19.39216 -75.10445,-2.90651 -85.71429,-31.42858 -3.4186,-9.19011 -32.07033,-31.50355 14.28572,-25.71428 19.73301,2.46439 14.28571,-25.71429 14.28571,-25.71429 0,0 -61.64951,-8.38662 -77.14286,-31.42857 -0.53142,-0.79033 -0.81408,-2.36289 10e-6,-2.85714 45.87897,-27.85401 103.20328,38.11532 142.85714,74.28571 23.42152,21.36401 34.77362,53.02591 51.42857,80 15.70332,25.43285 45.71428,77.14286 45.71428,77.14286 z"
           style="fill:#ff4e22;fill-opacity:0.45882353;stroke:#000000;stroke-width:1px;stroke-linecap:butt;stroke-linejoin:miter;stroke-opacity:1" />
        <path
           style="fill:#0099ff;fill-opacity:0.33990149;stroke:#000000;stroke-width:1px;stroke-linecap:butt;stroke-linejoin:miter;stroke-opacity:1"
           d="m 122.85714,663.79075 c 0,0 20.03795,-66.68663 42.85715,-91.42857 10.41132,-11.28858 25.27285,-18.50528 40,-22.85714 16.46546,-4.86552 34.5795,-6.15766 51.42857,-2.85714 19.64922,3.84903 35.09752,19.99412 54.28571,25.71428 26.71858,7.96502 63.43306,11.2582 82.85715,11.42857 31.94259,0.28018 46.24371,-9.62119 68.57142,-17.14285 20.62072,-6.94662 38.29725,-24.14583 60,-25.71429 29.49294,-2.13146 61.48311,5.90938 85.71429,22.85714 9.52641,6.66296 14.65086,18.24989 20,28.57143 11.64375,22.46744 25.71428,71.42857 25.71428,71.42857 z"
           id="path3820"
           inkscape:connector-curvature="0"
           sodipodi:nodetypes="caaaasaaaacc" />
        <path
           style="fill:none;stroke:#000000;stroke-width:1px;stroke-linecap:butt;stroke-linejoin:miter;stroke-opacity:1"
           d="m 255.56859,506.87981 45.45687,7.07107"
           id="path3828"
           inkscape:connector-curvature="0"
           sodipodi:nodetypes="cc" />
        <path
           style="fill:none;stroke:#000000;stroke-width:1px;stroke-linecap:butt;stroke-linejoin:miter;stroke-opacity:1"
           d="m 252.53814,511.93057 41.41625,11.11168"
           id="path3830"
           inkscape:connector-curvature="0" />
        <path
           style="fill:none;stroke:#000000;stroke-width:1px;stroke-linecap:butt;stroke-linejoin:miter;stroke-opacity:1"
           d="m 250.51783,506.87981 44.44671,12.12183"
           id="path3832"
           inkscape:connector-curvature="0" />
        <path
           style="fill:none;stroke:#000000;stroke-width:1px;stroke-linecap:butt;stroke-linejoin:miter;stroke-opacity:1"
           d="m 251.52798,514.96103 43.43656,18.18274"
           id="path3834"
           inkscape:connector-curvature="0" />
        <path
           style="fill:none;stroke:#000000;stroke-width:1px;stroke-linecap:butt;stroke-linejoin:miter;stroke-opacity:1"
           d="m 529.31993,514.96103 -51.51778,0"
           id="path3838"
           inkscape:connector-curvature="0" />
        <path
           style="fill:none;stroke:#000000;stroke-width:1px;stroke-linecap:butt;stroke-linejoin:miter;stroke-opacity:1"
           d="m 532.35039,515.97118 -51.51778,5.05076"
           id="path3842"
           inkscape:connector-curvature="0" />
        <path
           style="fill:none;stroke:#000000;stroke-width:1px;stroke-linecap:butt;stroke-linejoin:miter;stroke-opacity:1"
           d="m 532.35039,521.02194 -51.51778,6.06092"
           id="path3846"
           inkscape:connector-curvature="0" />
        <path
           style="fill:none;stroke:#000000;stroke-width:1px;stroke-linecap:butt;stroke-linejoin:miter;stroke-opacity:1"
           d="m 538.41131,527.08286 -6.06092,0 -54.54824,10.10152"
           id="path3848"
           inkscape:connector-curvature="0" />
      </g>
      <g
         transform="translate(244,-492)"
         id="g3873">
        <path
           style="fill:#808080;stroke:#000000;stroke-width:1px;stroke-linecap:butt;stroke-linejoin:miter;stroke-opacity:1"
           d="m 249,196.36218 c -8.93024,8.43633 -14.31718,13.77648 -48.5,41.5 l -2,-32 46,-42 z"
           id="path3871"
           inkscape:connector-curvature="0"
           sodipodi:nodetypes="ccccc" />
        <path
           style="fill:#333333;stroke:#000000;stroke-width:1px;stroke-linecap:butt;stroke-linejoin:miter;stroke-opacity:1"
           d="m 364,60.36218 20,22 -138,118 c -24,2.66667 -27.33333,-11.33333 -14,-30 z"
           id="path3869"
           inkscape:connector-curvature="0"
           sodipodi:nodetypes="ccccc" />
      </g>
      <path
         style="fill:#fff522;fill-opacity:0.45882353;stroke:#000000;stroke-width:0.65964037px;stroke-linecap:butt;stroke-linejoin:miter;stroke-opacity:1"
         d="M 0.98571067,284.06402 40.191928,282.25204 c 0,0 18.882799,-31.81107 29.404662,-47.11148 18.378815,-26.72565 58.80932,-77.91514 58.80932,-77.91514 l -25.48403,-12.68386 c 0,0 -36.069293,52.26481 -54.888709,77.91514 -15.26352,20.80373 -47.04746033,61.60732 -47.04746033,61.60732 z"
         id="path3879"
         inkscape:connector-curvature="0"
         sodipodi:nodetypes="ccaccac" />
      <path
         style="fill:#ff4e22;fill-opacity:0.45882353;stroke:#000000;stroke-width:0.65964037px;stroke-linecap:butt;stroke-linejoin:miter;stroke-opacity:1"
         d="m 42.152244,282.25204 37.245902,0 c 0,0 10.200633,-30.80008 17.642801,-45.2995 4.899563,-9.54573 8.833713,-20.4469 17.642793,-27.1797 16.09099,-12.29837 51.52983,-1.84329 58.80933,-19.93178 2.34553,-5.82831 22.00374,-19.97934 -9.80156,-16.30782 -13.53899,1.5629 -9.80155,-16.30782 -9.80155,-16.30782 0,0 42.29827,-5.31874 52.9284,-19.93178 0.36461,-0.50123 0.55855,-1.49853 -1e-5,-1.81198 -31.47796,-17.66482 -70.80868,24.17247 -98.01554,47.11148 -16.069714,13.5489 -23.85849,33.62866 -35.285598,50.73544 -10.774184,16.12933 -31.364968,48.92346 -31.364968,48.92346 z"
         id="path3881"
         inkscape:connector-curvature="0"
         sodipodi:nodetypes="ccaaascaaaac" />
      <path
         style="fill:#00ffff;fill-opacity:0.45812809;stroke:#000000;stroke-width:0.59433508px;stroke-linecap:butt;stroke-linejoin:miter;stroke-opacity:1"
         d="m 104.88219,144.66879 24.2168,12.97743 c 0,0 10.67847,-33.02162 22.83066,-45.33861 15.28868,-15.496004 36.90534,-26.210042 58.80933,-31.679132 38.48046,-9.607993 81.50808,-10.913396 119.57897,-7e-6 10.35249,2.967643 34.32232,20.515599 52.29405,16.942856 7.48771,-1.488539 13.45818,-8.336651 17.43111,-14.85565 7.66515,-12.577382 6.46192,-46.305586 10.05925,-43.026936 L 386.02614,26.431702 C 378.01184,18.306957 381.05695,76.536735 371.25123,69.18769 361.44551,61.838646 359.29507,62.449883 347.96074,57.881997 322.71476,47.707529 293.9521,45.836046 266.41199,45.601991 239.0814,45.369711 210.38383,46.474456 185.25493,56.411037 162.34484,65.47025 141.69897,80.855531 126.44561,99.068952 115.45998,112.18645 104.88219,144.66879 104.88219,144.66879 z"
         id="path3883"
         inkscape:connector-curvature="0"
         sodipodi:nodetypes="ccaasaacccsaaac" />
      <path
         style="fill:#00ffff;fill-opacity:0.45882353;stroke:#000000;stroke-width:0.65964037px;stroke-linecap:butt;stroke-linejoin:miter;stroke-opacity:1"
         d="m 387.16696,122.7978 30.21665,37.52087 21.89976,-12.37299 -28.59268,-39.64372 z"
         id="path3885"
         inkscape:connector-curvature="0"
         sodipodi:nodetypes="ccccc" />
      <path
         sodipodi:open="true"
         sodipodi:end="3.370806"
         sodipodi:start="0"
         sodipodi:type="arc"
         style="opacity:0.775;fill:#00e1fc;fill-opacity:0.78431373;stroke:#000000;stroke-width:3;stroke-miterlimit:10;stroke-opacity:1;stroke-dasharray:none;stroke-dashoffset:0"
         id="path3887"
         sodipodi:cx="390"
         sodipodi:cy="508.07648"
         sodipodi:rx="92.857147"
         sodipodi:ry="35.714287"
         d="m 482.85715,508.07648 c 0,19.72445 -41.57356,35.71428 -92.85715,35.71428 -51.28359,0 -92.85715,-15.98983 -92.85715,-35.71428 0,-2.73172 0.81488,-5.45443 2.42864,-8.1147"
         transform="matrix(0.68610882,0,0,0.63419302,0.98571006,-126.03556)" />
      <path
         sodipodi:end="3.6029982"
         sodipodi:start="0"
         sodipodi:type="arc"
         style="opacity:0.775;fill:#0000fc;fill-opacity:1;stroke:#0000fb;stroke-width:6.4000001;stroke-miterlimit:10;stroke-opacity:1;stroke-dasharray:none;stroke-dashoffset:0"
         id="path3889"
         sodipodi:cx="382.85715"
         sodipodi:cy="692.36218"
         sodipodi:rx="54.285713"
         sodipodi:ry="17.142857"
         d="m 437.14286,692.36218 c 0,9.46774 -24.30454,17.14286 -54.28571,17.14286 -29.98117,0 -54.28572,-7.67512 -54.28572,-17.14286 0,-2.64836 1.94307,-5.2607 5.67679,-7.63212 l 48.60893,7.63212 z"
         transform="matrix(0.56604729,0,0,0.54701347,52.045447,-182.34957)" />
      <path
         sodipodi:nodetypes="ccaccac"
         inkscape:connector-curvature="0"
         id="path3891"
         d="M 542.38145,287.68798 503.17523,285.876 c 0,0 -18.88279,-31.81107 -29.40466,-47.11148 -18.37881,-26.72564 -58.80932,-77.91514 -58.80932,-77.91514 l 25.48403,-12.68386 c 0,0 36.0693,52.26482 54.88871,77.91514 15.26352,20.80374 47.04746,61.60732 47.04746,61.60732 z"
         style="fill:#fff522;fill-opacity:0.45882353;stroke:#000000;stroke-width:0.65964037px;stroke-linecap:butt;stroke-linejoin:miter;stroke-opacity:1" />
      <path
         sodipodi:nodetypes="ccaaascaaaac"
         inkscape:connector-curvature="0"
         id="path3893"
         d="m 501.21492,285.876 -37.24591,0 c 0,0 -10.20063,-30.80007 -17.6428,-45.2995 -4.89956,-9.54572 -8.83371,-20.4469 -17.64279,-27.17969 -16.09099,-12.29838 -51.52983,-1.84329 -58.80933,-19.93179 -2.34553,-5.8283 -22.00374,-19.97933 9.80156,-16.30782 13.53899,1.5629 7.68023,-10.65097 7.68023,-10.65097 0,0 -38.22876,5.372 -54.34261,-2.96121 -2.02111,-1.04521 -5.48865,-3.44364 -4.24263,-5.34752 19.97704,-30.52443 75.91366,7.09102 105.79371,28.0196 16.87267,11.81795 23.85849,33.62866 35.2856,50.73544 10.77418,16.12934 31.36497,48.92346 31.36497,48.92346 z"
         style="fill:#ff4e22;fill-opacity:0.45882353;stroke:#000000;stroke-width:0.65964037px;stroke-linecap:butt;stroke-linejoin:miter;stroke-opacity:1" />
      <path
         style="fill:#0099ff;fill-opacity:0.33990149;stroke:#000000;stroke-width:0.65964037px;stroke-linecap:butt;stroke-linejoin:miter;stroke-opacity:1"
         d="m 87.239388,284.06402 c 0,0 13.748212,-42.29219 29.404672,-57.98336 7.1433,-7.15914 17.33992,-11.73592 27.44435,-14.49584 11.2971,-3.08568 23.7253,-3.90514 35.2856,-1.81198 13.4815,2.44103 24.08071,12.68013 37.2459,16.30782 18.33185,5.05136 43.52198,7.13987 56.84902,7.24792 21.91609,0.17769 31.72822,-6.10169 47.04746,-10.87188 14.14806,-4.40549 26.27608,-15.31311 41.16653,-16.30782 20.23536,-1.35176 42.1841,3.74769 58.80933,14.49584 6.53615,4.2256 10.05208,11.57395 13.72217,18.1198 7.98888,14.24869 17.6428,45.2995 17.6428,45.2995 z"
         id="path3895"
         inkscape:connector-curvature="0"
         sodipodi:nodetypes="caaaasaaaacc" />
      <path
         style="fill:none;stroke:#000000;stroke-width:0.65964037px;stroke-linecap:butt;stroke-linejoin:miter;stroke-opacity:1"
         d="m 178.29388,184.5522 31.18836,4.48442"
         id="path3897"
         inkscape:connector-curvature="0"
         sodipodi:nodetypes="cc" />
      <path
         style="fill:none;stroke:#000000;stroke-width:0.65964037px;stroke-linecap:butt;stroke-linejoin:miter;stroke-opacity:1"
         d="m 176.21467,187.75535 28.41605,7.04695"
         id="path3899"
         inkscape:connector-curvature="0" />
      <path
         style="fill:none;stroke:#000000;stroke-width:0.65964037px;stroke-linecap:butt;stroke-linejoin:miter;stroke-opacity:1"
         d="m 174.82851,184.5522 30.49528,7.68758"
         id="path3901"
         inkscape:connector-curvature="0" />
      <path
         style="fill:none;stroke:#000000;stroke-width:0.65964037px;stroke-linecap:butt;stroke-linejoin:miter;stroke-opacity:1"
         d="m 175.52159,189.67725 29.8022,11.53137"
         id="path3903"
         inkscape:connector-curvature="0" />
      <path
         style="fill:none;stroke:#000000;stroke-width:0.65964037px;stroke-linecap:butt;stroke-linejoin:miter;stroke-opacity:1"
         d="m 366.11709,189.67725 -35.3468,0"
         id="path3905"
         inkscape:connector-curvature="0" />
      <path
         style="fill:none;stroke:#000000;stroke-width:0.65964037px;stroke-linecap:butt;stroke-linejoin:miter;stroke-opacity:1"
         d="m 368.19632,190.31788 -35.3468,3.20316"
         id="path3907"
         inkscape:connector-curvature="0" />
      <path
         style="fill:none;stroke:#000000;stroke-width:0.65964037px;stroke-linecap:butt;stroke-linejoin:miter;stroke-opacity:1"
         d="m 368.19632,193.52104 -35.3468,3.84379"
         id="path3909"
         inkscape:connector-curvature="0" />
      <path
         style="fill:none;stroke:#000000;stroke-width:0.65964037px;stroke-linecap:butt;stroke-linejoin:miter;stroke-opacity:1"
         d="m 372.35477,197.36483 -4.15845,0 -37.42603,6.40631"
         id="path3911"
         inkscape:connector-curvature="0" />
      <g
         id="g3930"
         transform="translate(108.2355,-67.735932)">
        <path
           sodipodi:nodetypes="ccccc"
           inkscape:connector-curvature="0"
           id="path3932"
           d="m 249,196.36218 c -8.93024,8.43633 -14.31718,13.77648 -48.5,41.5 l -2,-32 46,-42 z"
           style="fill:#808080;stroke:#000000;stroke-width:1px;stroke-linecap:butt;stroke-linejoin:miter;stroke-opacity:1" />
        <path
           sodipodi:nodetypes="ccccc"
           inkscape:connector-curvature="0"
           id="path3934"
           d="m 364,60.36218 20,22 -138,118 c -24,2.66667 -27.33333,-11.33333 -14,-30 z"
           style="fill:#333333;stroke:#000000;stroke-width:1px;stroke-linecap:butt;stroke-linejoin:miter;stroke-opacity:1" />
      </g>
      <path
         sodipodi:nodetypes="ccccc"
         transform="translate(0,-447.63782)"
         inkscape:connector-curvature="0"
         id="path3936"
         d="m 231.93102,605.86347 -0.7071,10.25305 8.48528,-2.47487 0,-4.94975 z"
         style="fill:#00e1fc;fill-opacity:0.78431373;stroke:none" />
      <path
         style="fill:#00e1fc;fill-opacity:0.78431373;stroke:none"
         d="m 214.25335,163.52895 -0.7071,10.25305 4.24264,-3.53553 1.41421,-6.01041 z"
         id="path3938"
         inkscape:connector-curvature="0"
         sodipodi:nodetypes="ccccc" />
      <path
         style="fill:#00e1fc;fill-opacity:0.78431373;stroke:none"
         d="m 223.09219,168.83225 -0.35355,5.3033 3.18198,4.24265 1.76777,-4.94975 z"
         id="path3940"
         inkscape:connector-curvature="0"
         sodipodi:nodetypes="ccccc" />
      <path
         inkscape:connector-curvature="0"
         id="path3942"
         d="m 255.97266,172.72134 -1.06067,9.8995 5.30331,-2.82843 0.35355,-3.18198 -1.76777,-5.3033 z"
         style="fill:#0000fc;fill-opacity:1;stroke:none" />
      <path
         sodipodi:nodetypes="cccccc"
         style="fill:#0000fc;fill-opacity:1;stroke:none"
         d="m 267.28637,189.6919 2.12131,5.3033 8.13174,-2.47487 -3.88909,-1.76777 -4.24264,-0.35355 z"
         id="path3944"
         inkscape:connector-curvature="0" />
      <path
         style="fill:#fff522;fill-opacity:0.45882353;stroke:#000000;stroke-width:0.65964037px;stroke-linecap:butt;stroke-linejoin:miter;stroke-opacity:1"
         d="M 0.98571067,672.06402 40.191928,670.25204 c 0,0 18.882799,-31.81107 29.404662,-47.11148 18.378815,-26.72565 58.80932,-77.91514 58.80932,-77.91514 l -25.48403,-12.68386 c 0,0 -36.069293,52.26481 -54.888709,77.91514 -15.26352,20.80373 -47.04746033,61.60732 -47.04746033,61.60732 z"
         id="path3948"
         inkscape:connector-curvature="0"
         sodipodi:nodetypes="ccaccac" />
      <path
         style="fill:#ff4e22;fill-opacity:0.45882353;stroke:#000000;stroke-width:0.65964037px;stroke-linecap:butt;stroke-linejoin:miter;stroke-opacity:1"
         d="m 42.152244,670.25204 37.245902,0 c 0,0 10.200633,-30.80008 17.642801,-45.2995 4.899563,-9.54573 8.833713,-20.4469 17.642793,-27.1797 16.09099,-12.29837 51.52983,-1.84329 58.80933,-19.93178 2.34553,-5.82831 22.00374,-19.97934 -9.80156,-16.30782 -13.53899,1.5629 -9.80155,-16.30782 -9.80155,-16.30782 0,0 42.29827,-5.31874 52.9284,-19.93178 0.36461,-0.50123 0.55855,-1.49853 -1e-5,-1.81198 -31.47796,-17.66482 -70.80868,24.17247 -98.01554,47.11148 -16.069714,13.5489 -23.85849,33.62866 -35.285598,50.73544 -10.774184,16.12933 -31.364968,48.92346 -31.364968,48.92346 z"
         id="path3950"
         inkscape:connector-curvature="0"
         sodipodi:nodetypes="ccaaascaaaac" />
      <path
         style="fill:#00ffff;fill-opacity:0.45812809;stroke:#000000;stroke-width:0.59433508px;stroke-linecap:butt;stroke-linejoin:miter;stroke-opacity:1"
         d="m 104.88219,532.66879 24.2168,12.97743 c 0,0 10.67847,-33.02162 22.83066,-45.33861 15.28868,-15.496 36.90534,-26.21004 58.80933,-31.67913 38.48046,-9.60799 81.50808,-10.91339 119.57897,-1e-5 20.70499,5.93529 38.64659,20.36533 53.62146,34.01359 l 22.59283,-14.67125 c -16.0286,-16.24949 -35.90284,-32.95304 -58.5715,-42.08881 -25.24598,-10.17448 -54.00864,-12.04595 -81.54875,-12.28001 -27.33059,-0.23228 -56.02816,0.87247 -81.15706,10.80905 -22.91009,9.05921 -43.55596,24.44449 -58.80932,42.65791 -10.98563,13.1175 -21.56342,45.59984 -21.56342,45.59984 z"
         id="path3952"
         inkscape:connector-curvature="0"
         sodipodi:nodetypes="ccaaaccaaaac" />
      <path
         style="fill:#00ffff;fill-opacity:0.45882353;stroke:#000000;stroke-width:0.65964037px;stroke-linecap:butt;stroke-linejoin:miter;stroke-opacity:1"
         d="m 387.16696,510.7978 30.21665,37.52087 21.89976,-12.37299 -28.59268,-39.64372 z"
         id="path3954"
         inkscape:connector-curvature="0"
         sodipodi:nodetypes="ccccc" />
      <path
         sodipodi:open="true"
         sodipodi:end="9.7236806"
         sodipodi:start="6.0729733"
         sodipodi:type="arc"
         style="opacity:0.775;fill:none;stroke:#000000;stroke-width:3;stroke-miterlimit:10;stroke-opacity:1;stroke-dasharray:none;stroke-dashoffset:0"
         id="path3956"
         sodipodi:cx="390"
         sodipodi:cy="508.07648"
         sodipodi:rx="92.857147"
         sodipodi:ry="35.714287"
         d="m 480.81305,500.62408 c 10.70121,19.29025 -21.28214,38.26465 -71.4368,42.38049 -50.15467,4.11585 -99.4881,-8.18544 -110.1893,-27.47569 -3.30612,-5.95969 -2.59243,-12.14562 2.07317,-17.96925"
         transform="matrix(0.68610882,0,0,0.63419302,0.98571006,261.96444)" />
      <path
         sodipodi:nodetypes="ccaccac"
         inkscape:connector-curvature="0"
         id="path3960"
         d="M 542.38145,675.68798 503.17523,673.876 c 0,0 -18.88279,-31.81107 -29.40466,-47.11148 -18.37881,-26.72564 -58.80932,-77.91514 -58.80932,-77.91514 l 25.48403,-12.68386 c 0,0 36.0693,52.26482 54.88871,77.91514 15.26352,20.80374 47.04746,61.60732 47.04746,61.60732 z"
         style="fill:#fff522;fill-opacity:0.45882353;stroke:#000000;stroke-width:0.65964037px;stroke-linecap:butt;stroke-linejoin:miter;stroke-opacity:1" />
      <path
         sodipodi:nodetypes="ccaaascaaaac"
         inkscape:connector-curvature="0"
         id="path3962"
         d="m 501.21492,673.876 -37.24591,0 c 0,0 -10.20063,-30.80007 -17.6428,-45.2995 -4.89956,-9.54572 -8.83371,-20.4469 -17.64279,-27.17969 -16.09099,-12.29838 -51.52983,-1.84329 -58.80933,-19.93179 -2.34553,-5.8283 -22.00374,-19.97933 9.80156,-16.30782 13.53899,1.5629 9.80155,-16.30782 9.80155,-16.30782 0,0 -42.29827,-5.31874 -52.9284,-19.93178 -0.36461,-0.50122 -0.55855,-1.49853 10e-6,-1.81198 31.47796,-17.66482 70.80868,24.17247 98.01554,47.11148 16.06971,13.54891 23.85849,33.62866 35.2856,50.73544 10.77418,16.12934 31.36497,48.92346 31.36497,48.92346 z"
         style="fill:#ff4e22;fill-opacity:0.45882353;stroke:#000000;stroke-width:0.65964037px;stroke-linecap:butt;stroke-linejoin:miter;stroke-opacity:1" />
      <path
         style="fill:#0099ff;fill-opacity:0.33990149;stroke:#000000;stroke-width:0.65964037px;stroke-linecap:butt;stroke-linejoin:miter;stroke-opacity:1"
         d="m 87.239388,672.06402 c 0,0 13.748212,-42.29219 29.404672,-57.98336 7.1433,-7.15914 17.33992,-11.73592 27.44435,-14.49584 11.2971,-3.08568 23.7253,-3.90514 35.2856,-1.81198 13.4815,2.44103 24.08071,12.68013 37.2459,16.30782 18.33185,5.05136 43.52198,7.13987 56.84902,7.24792 21.91609,0.17769 31.72822,-6.10169 47.04746,-10.87188 14.14806,-4.40549 26.27608,-15.31311 41.16653,-16.30782 20.23536,-1.35176 42.1841,3.74769 58.80933,14.49584 6.53615,4.2256 10.05208,11.57395 13.72217,18.1198 7.98888,14.24869 17.6428,45.2995 17.6428,45.2995 z"
         id="path3964"
         inkscape:connector-curvature="0"
         sodipodi:nodetypes="caaaasaaaacc" />
      <path
         style="fill:none;stroke:#000000;stroke-width:0.65964037px;stroke-linecap:butt;stroke-linejoin:miter;stroke-opacity:1"
         d="m 178.29388,572.5522 31.18836,4.48442"
         id="path3966"
         inkscape:connector-curvature="0"
         sodipodi:nodetypes="cc" />
      <path
         style="fill:none;stroke:#000000;stroke-width:0.65964037px;stroke-linecap:butt;stroke-linejoin:miter;stroke-opacity:1"
         d="m 176.21467,575.75535 28.41605,7.04695"
         id="path3968"
         inkscape:connector-curvature="0" />
      <path
         style="fill:none;stroke:#000000;stroke-width:0.65964037px;stroke-linecap:butt;stroke-linejoin:miter;stroke-opacity:1"
         d="m 174.82851,572.5522 30.49528,7.68758"
         id="path3970"
         inkscape:connector-curvature="0" />
      <path
         style="fill:none;stroke:#000000;stroke-width:0.65964037px;stroke-linecap:butt;stroke-linejoin:miter;stroke-opacity:1"
         d="m 175.52159,577.67725 29.8022,11.53137"
         id="path3972"
         inkscape:connector-curvature="0" />
      <path
         style="fill:none;stroke:#000000;stroke-width:0.65964037px;stroke-linecap:butt;stroke-linejoin:miter;stroke-opacity:1"
         d="m 366.11709,577.67725 -35.3468,0"
         id="path3974"
         inkscape:connector-curvature="0" />
      <path
         style="fill:none;stroke:#000000;stroke-width:0.65964037px;stroke-linecap:butt;stroke-linejoin:miter;stroke-opacity:1"
         d="m 368.19632,578.31788 -35.3468,3.20316"
         id="path3976"
         inkscape:connector-curvature="0" />
      <path
         style="fill:none;stroke:#000000;stroke-width:0.65964037px;stroke-linecap:butt;stroke-linejoin:miter;stroke-opacity:1"
         d="m 368.19632,581.52104 -35.3468,3.84379"
         id="path3978"
         inkscape:connector-curvature="0" />
      <path
         style="fill:none;stroke:#000000;stroke-width:0.65964037px;stroke-linecap:butt;stroke-linejoin:miter;stroke-opacity:1"
         d="m 372.35477,585.36483 -4.15845,0 -37.42603,6.40631"
         id="path3980"
         inkscape:connector-curvature="0" />
      <g
         id="g4082">
        <path
           transform="matrix(0.56604729,0,0,0.54701347,53.813214,206.35754)"
           d="m 437.14286,692.36218 c 0,9.46774 -24.30454,17.14286 -54.28571,17.14286 -29.98117,0 -54.28572,-7.67512 -54.28572,-17.14286 0,-9.46774 24.30455,-17.14285 54.28572,-17.14285 29.98117,0 54.28571,7.67511 54.28571,17.14285 z"
           sodipodi:ry="17.142857"
           sodipodi:rx="54.285713"
           sodipodi:cy="692.36218"
           sodipodi:cx="382.85715"
           id="path3958"
           style="opacity:0.775;fill:#10ffff;fill-opacity:0.99014779;stroke:none"
           sodipodi:type="arc" />
        <path
           style="fill:none;stroke:#000000;stroke-width:4;stroke-linecap:butt;stroke-linejoin:miter;stroke-miterlimit:4;stroke-opacity:0.39901476;stroke-dasharray:none"
           d="m 204.35386,582.13618 37.47666,1.4142"
           id="path4003"
           inkscape:connector-curvature="0" />
        <path
           style="fill:none;stroke:#000000;stroke-width:4;stroke-linecap:butt;stroke-linejoin:miter;stroke-miterlimit:4;stroke-opacity:0.4;stroke-dasharray:none"
           d="m 300.52038,584.25748 31.1127,-0.7071"
           id="path4005"
           inkscape:connector-curvature="0" />
      </g>
      <g
         id="g4074">
        <path
           sodipodi:type="arc"
           style="opacity:0.775;fill:#10ffff;fill-opacity:0.99014779;stroke:none"
           id="path4018"
           sodipodi:cx="382.85715"
           sodipodi:cy="692.36218"
           sodipodi:rx="54.285713"
           sodipodi:ry="17.142857"
           d="m 437.14286,692.36218 c 0,9.46774 -24.30454,17.14286 -54.28571,17.14286 -29.98117,0 -54.28572,-7.67512 -54.28572,-17.14286 0,-9.46774 24.30455,-17.14285 54.28572,-17.14285 29.98117,0 54.28571,7.67511 54.28571,17.14285 z"
           transform="matrix(0.47201269,-0.31243169,0.30192591,0.45614086,78.341728,261.62679)" />
        <path
           inkscape:connector-curvature="0"
           id="path4020"
           d="m 411.28609,491.8878 32.03142,-19.5061"
           style="fill:none;stroke:#000000;stroke-width:4;stroke-linecap:butt;stroke-linejoin:miter;stroke-miterlimit:4;stroke-opacity:0.39901476;stroke-dasharray:none" />
        <path
           inkscape:connector-curvature="0"
           id="path4022"
           d="m 492.6478,440.57727 25.55382,-17.76239"
           style="fill:none;stroke:#000000;stroke-width:4;stroke-linecap:butt;stroke-linejoin:miter;stroke-miterlimit:4;stroke-opacity:0.4;stroke-dasharray:none" />
      </g>
      <g
         transform="translate(-60.041631,37.556349)"
         id="g4042">
        <path
           style="fill:none;stroke:#000080;stroke-width:4;stroke-linecap:butt;stroke-linejoin:miter;stroke-miterlimit:4;stroke-opacity:1;stroke-dasharray:none"
           d="m 364.15999,522.0321 0,0 70.71068,-43.84061"
           id="path4024"
           inkscape:connector-curvature="0"
           sodipodi:nodetypes="ccc" />
        <path
           style="fill:#000080;stroke:#000080;stroke-width:1;stroke-linecap:butt;stroke-linejoin:miter;stroke-miterlimit:4;stroke-opacity:1;stroke-dasharray:none"
           d="m 380.71181,486.62715 -19.0267,37.87982 44.12947,-10.79801 -28.21955,0.19141 z"
           id="path4026"
           inkscape:connector-curvature="0"
           sodipodi:nodetypes="ccccc" />
      </g>
      <g
         id="flowRoot4046"
         style="font-size:48px;font-style:normal;font-variant:normal;font-weight:normal;font-stretch:normal;line-height:125%;letter-spacing:0px;word-spacing:0px;fill:#000000;fill-opacity:1;stroke:none;font-family:Century;-inkscape-font-specification:Century"
         transform="translate(-16.970563,-481.57895)">
        <path
           inkscape:connector-curvature="0"
           id="path4055"
           d="m 508.0625,949.64479 15.98437,0 0,1.75781 -2.74218,0 c -1.21877,3e-5 -1.9883,0.15238 -2.3086,0.45703 -0.32032,0.30472 -0.48048,0.94925 -0.48047,1.9336 l 0,26.25 c -10e-6,1.04687 0.14062,1.70312 0.42188,1.96875 0.37499,0.35937 1.05467,0.53906 2.03906,0.53906 l 3.07031,0 0,1.75781 -15.98437,0 0,-1.75781 3.02344,0 c 1.06249,0 1.74999,-0.15625 2.0625,-0.46875 0.31249,-0.3125 0.46874,-0.99219 0.46875,-2.03906 l 0,-26.25 c -1e-5,-0.99997 -0.14063,-1.61716 -0.42188,-1.85157 -0.4375,-0.35934 -1.24219,-0.53903 -2.41406,-0.53906 l -2.71875,0 z" />
        <path
           inkscape:connector-curvature="0"
           id="path4057"
           d="m 544.25,948.91823 c 2.92185,3e-5 5.66013,0.76956 8.21484,2.30859 2.55466,1.53909 4.55466,3.68753 6,6.44531 1.44528,2.75784 2.16794,5.8633 2.16797,9.31641 -3e-5,3.45314 -0.72659,6.57032 -2.17969,9.35156 -1.45315,2.78126 -3.44924,4.94922 -5.98828,6.50391 -2.53908,1.55468 -5.23049,2.33203 -8.07422,2.33203 -2.78126,0 -5.39063,-0.76172 -7.82812,-2.28516 -2.43751,-1.52343 -4.39454,-3.70312 -5.87109,-6.53906 -1.47657,-2.83593 -2.21485,-5.98046 -2.21485,-9.43359 0,-3.40623 0.71484,-6.48045 2.14453,-9.22266 1.42969,-2.74216 3.38671,-4.89059 5.8711,-6.44531 2.48436,-1.55466 5.07029,-2.332 7.75781,-2.33203 z m 0.375,1.80468 c -3.04689,4e-5 -5.51564,1.26566 -7.40625,3.79688 -1.89063,2.53128 -2.83595,6.65627 -2.83594,12.375 -10e-6,6.20313 0.96874,10.49219 2.90625,12.86719 1.93749,2.375 4.33592,3.5625 7.19531,3.5625 1.99998,0 3.7578,-0.53907 5.27344,-1.61719 1.5156,-1.07812 2.72263,-2.78906 3.6211,-5.13281 0.89841,-2.34374 1.34762,-5.42187 1.34765,-9.23438 -3e-5,-4.15623 -0.4219,-7.40232 -1.26562,-9.73828 -0.84378,-2.33591 -2.0469,-4.06638 -3.60938,-5.19141 -1.56252,-1.12496 -3.30471,-1.68746 -5.22656,-1.6875 z" />
        <path
           inkscape:connector-curvature="0"
           id="path4059"
           d="m 564.6875,949.64479 16.05469,0 0,1.75781 -3.84375,0 c -0.60939,3e-5 -1.05861,0.16019 -1.34766,0.48047 -0.28907,0.32034 -0.4336,0.82425 -0.43359,1.51172 l 0,27.35156 c -1e-5,0.65625 0.18358,1.1211 0.55078,1.39453 0.36717,0.27344 1.10545,0.41016 2.21484,0.41016 l 4.875,0 c 2.59373,0 4.71482,-0.86328 6.36328,-2.58985 1.64841,-1.72655 2.84763,-4.72264 3.59766,-8.98828 l 1.64062,0 -0.79687,13.33594 -28.875,0 0,-1.75781 2.83594,0 c 0.96874,0 1.64843,-0.18359 2.03906,-0.55078 0.39062,-0.36719 0.58593,-0.95703 0.58594,-1.76953 l 0,-27.07032 c -1e-5,-0.57809 -0.16407,-1.01559 -0.49219,-1.3125 -0.32813,-0.29684 -0.81251,-0.44528 -1.45313,-0.44531 l -3.51562,0 z" />
      </g>
    </g>
  </g>
</svg>
